<svg width="0.333333in" height="0.333333in" viewBox="0 0 100 100" xmlns="http://www.w3.org/2000/svg"><path fill="black" d="M 28.00,52.00 C 30.22,59.49 33.02,60.56 40.00,63.00 39.80,57.93 39.43,54.47 42.65,50.04 52.61,36.31 73.31,45.21 69.00,63.00 68.04,56.83 68.89,51.37 62.82,47.15 55.53,42.07 44.66,45.62 41.85,54.00 40.42,58.29 41.51,61.01 43.00,65.00 39.52,64.06 33.25,61.19 30.02,61.75 25.97,62.45 23.97,66.26 27.32,69.30 29.96,71.70 35.54,72.69 39.00,73.00 39.00,73.00 38.00,76.00 38.00,76.00 43.91,80.13 46.79,83.18 54.00,80.00 54.00,80.00 53.00,76.00 53.00,76.00 53.00,76.00 39.00,75.00 39.00,75.00 49.46,72.04 60.04,79.57 70.90,69.67 83.39,58.28 75.64,36.13 55.00,37.04 45.82,37.44 46.35,41.62 36.00,40.00 36.00,40.00 36.00,38.00 36.00,38.00 47.01,34.86 54.44,28.50 59.00,18.00 44.79,15.13 36.93,28.30 28.00,35.00 31.50,30.74 35.66,25.79 40.00,22.39 44.82,18.61 48.94,19.20 50.00,13.00 39.85,13.50 32.71,17.98 26.53,26.00 26.53,26.00 21.19,34.59 21.19,34.59 18.83,37.36 13.61,38.79 11.95,44.00 10.07,49.86 16.28,56.87 28.00,52.00 Z M 22.00,41.00 C 22.00,41.00 21.00,45.00 21.00,45.00 21.00,45.00 19.00,41.00 19.00,41.00 19.00,41.00 22.00,41.00 22.00,41.00 Z M 78.00,51.00 C 78.00,51.00 78.00,64.00 78.00,64.00 81.95,62.97 84.94,61.72 87.13,57.98 90.26,52.66 87.23,47.63 78.00,51.00 Z M 68.00,63.00 C 68.00,63.00 68.00,64.00 68.00,64.00 68.00,64.00 67.00,63.00 67.00,63.00 67.00,63.00 68.00,63.00 68.00,63.00 Z M 44.00,65.00 C 44.00,65.00 44.00,66.00 44.00,66.00 44.00,66.00 43.00,65.00 43.00,65.00 43.00,65.00 44.00,65.00 44.00,65.00 Z M 67.00,65.00 C 67.00,65.00 67.00,66.00 67.00,66.00 67.00,66.00 66.00,65.00 66.00,65.00 66.00,65.00 67.00,65.00 67.00,65.00 Z"/>
</svg>
