<?xml version="1.0" encoding="utf-8"?>
<!-- Generator: Adobe Illustrator 21.1.0, SVG Export Plug-In . SVG Version: 6.00 Build 0)  -->
<svg version="1.1" id="Layer_1" xmlns="http://www.w3.org/2000/svg" xmlns:xlink="http://www.w3.org/1999/xlink" x="0px" y="0px"
	 viewBox="0 0 177.8 178" style="enable-background:new 0 0 177.8 178;" xml:space="preserve">
<style type="text/css">
	.st0{fill:#00ACF2;}
</style>
<path class="st0" d="M43.8,176.9c-10.6-1.4-18.3-8.5-23.7-17.9c-1.1-1.9-2.1-3.7-0.9-6c2-3.7,6.5-3.7,9.1,0.4
	c4.2,6.4,9.2,11.5,17,13.3c15.3,3.6,31.8-9.1,30.9-24.8c-0.9-16.1,3.6-29.6,15.5-40.5c17.1-15.6,18.3-49.3,9.7-66.6
	C94.3,20.7,82,14.6,67.2,11.7c-9-1.7-17.8-0.9-26.4,1.3c-17.6,4.6-27.1,16.5-30,34.1C9.6,54.4,9,61.8,10.4,69.3
	c0.7,3.7,0,7.1-4.2,7.5s-4.6-2.7-5.5-6.5c-0.5-2.1-0.5-19-0.4-21c1.1-25.1,22.4-46.9,49-48c2-0.1,12.6-0.5,15.9-0.1
	c3.4,0.4,6.7,1.1,10,2c24.7,6.5,40.2,25.8,41.5,51.5c0.4,8.4-0.4,16.8-2.2,25c-2.4,10.8-6.9,20.7-15.2,28.3
	c-10.3,9.2-14,20.4-13.2,34c0.8,16-10.3,29.6-26.8,34.1C58.2,176.4,49.5,177.6,43.8,176.9z"/>
<path class="st0" d="M177.2,66.4c-0.8,14.7-7.5,27.5-15.4,39.7c-1.8,2.7-4.2,3.9-7.1,2.1c-3.2-2-2.9-4.8-1.1-7.7
	c7-10.9,12.4-22.5,13.8-35.6c1.8-16.5-2.8-31-13.9-43.3c-1.9-2.1-3.4-4.1-2.2-7c1.5-3.6,5.6-3.8,8.9-0.3c9.6,10.1,16,22.1,16.9,36
	C177.3,51.9,177.3,64.7,177.2,66.4z"/>
<path class="st0" d="M157.4,58.1c0,13.8-5.2,26-12.5,37.4c-1.8,2.8-4.4,3.8-7.2,2.1c-3.2-1.9-2.9-4.8-1.1-7.7
	c6.7-10.4,11.3-21.5,10.7-34.3c-0.4-9.8-4-18.3-10.4-25.5c-2.4-2.7-4.4-5.5-1.1-8.4c3.5-3.1,6.3-0.8,8.7,2.1
	C153.2,33.6,157.5,45,157.4,58.1z"/>
<path class="st0" d="M138.2,58.8c-0.3,9.9-3.6,18.6-8.7,26.6c-1.8,2.8-4.1,4.6-7.4,2.5c-3.1-2-2.9-4.8-1.1-7.7
	c4.9-7.9,8.4-16.1,6.8-25.7c-0.9-5.3-3-10.1-6.7-14.1c-2.5-2.7-3.5-5.5-0.4-8.1s5.8-0.9,8.1,1.8C135.1,41.2,137.9,49.6,138.2,58.8z"
	/>
<path class="st0" d="M52.3,116.9c-1.6-10.6,2.1-17.7,9.7-23.3c4.8-3.5,5.3-8.8,4.1-14.3c-0.9-4.3-4-6.2-7.9-7.2c-3-0.9-5.1,0-6,3.2
	c-0.6,2.2-1.3,4.4-2.1,6.6c-2.9,7.5-9.2,9.4-15.8,4.8c-17.4-12.1-15.4-40.5,3.9-51.2c11.4-6.4,23.7-7,35.8-1.9
	c12.5,5.3,17.3,16,18.8,28.7c0.4,3.3,0.3,6.6,0.1,9.9c-0.2,3.1-2,5-5.1,4.8s-4.8-2.2-4.7-5.3c0.1-5.5-0.1-10.9-1.8-16.1
	c-2.4-7.8-7.6-12.5-15.5-14.3c-6.6-1.5-13.2-1.1-19.5,1.3c-13.9,5.2-18.6,23.7-8.8,33.8c2.1,2.2,3.3,2.7,4.4-1
	c3.7-11.7,8.7-15.1,18.3-13.1c10.2,2.1,17.2,11.2,16.5,21.6c-0.5,7.6-3.1,14.2-9.7,18.6c-4.2,2.8-5.5,6.7-5.1,11.5
	c0.2,2.8,0.4,5.6,0.3,8.4c-0.3,10.7-8.8,16.4-18.8,12.8c-6.6-2.4-10.6-7.7-13.7-13.6c-1.5-2.9-1-6.1,2.5-7.4c3.3-1.3,5.8,0.1,7,3.5
	c1.2,3.2,3.2,5.8,6.1,7.5c4.3,2.6,6.9,1.2,7-3.9C52.3,119.4,52.3,117.6,52.3,116.9z"/>
</svg>
