<svg width="8.46668mm" height="8.46668mm" viewBox="0 0 100 100" xmlns="http://www.w3.org/2000/svg"><path fill="black" d="M 26.00,49.00 C 26.00,49.00 26.00,51.00 26.00,51.00 40.40,60.28 54.64,60.46 71.00,57.39 75.83,56.48 79.41,55.92 84.00,54.00 82.30,49.63 80.67,47.75 78.00,44.00 72.09,35.72 68.60,32.13 58.00,32.00 53.01,31.94 48.61,31.69 44.00,34.00 35.87,38.07 35.38,43.97 26.00,49.00 Z M 29.00,61.00 C 29.00,61.00 29.00,63.00 29.00,63.00 29.00,63.00 18.00,66.00 18.00,66.00 26.48,75.31 29.66,67.86 38.00,64.00 38.00,64.00 39.00,70.00 39.00,70.00 39.00,70.00 36.00,71.00 36.00,71.00 38.22,76.57 43.89,76.43 45.99,73.49 47.53,71.29 46.34,66.57 45.99,64.00 45.99,64.00 61.00,64.00 61.00,64.00 61.00,64.00 60.00,70.00 60.00,70.00 60.00,70.00 56.00,70.00 56.00,70.00 57.63,74.90 62.67,76.53 66.15,72.49 69.14,69.01 66.41,67.14 72.00,64.00 73.01,66.55 74.25,69.57 77.07,70.60 80.74,71.94 82.93,67.84 80.97,64.28 80.12,62.73 78.29,61.21 77.00,60.00 77.00,60.00 92.00,54.00 92.00,54.00 88.13,53.44 82.94,56.08 79.00,57.12 72.07,58.94 62.11,60.92 55.00,61.00 46.88,61.09 39.31,59.77 32.00,56.02 26.90,53.41 21.69,48.64 16.00,47.55 8.77,46.15 6.34,52.03 10.31,55.40 12.62,57.36 19.66,57.62 23.00,58.62 23.00,58.62 29.00,61.00 29.00,61.00 Z M 15.00,49.00 C 15.00,49.00 16.00,52.00 16.00,52.00 16.00,52.00 13.00,52.00 13.00,52.00  13.00,52.00 15.00,49.00 15.00,49.00 Z"/>
</svg>
